HIERARCHY
ROOT Hips
{
	OFFSET -3.958830 18.904000 13.208200
	CHANNELS 6 Xposition Yposition Zposition Zrotation Yrotation Xrotation 
	JOINT LHipJoint
	{
		OFFSET 0.000000 0.000000 0.000000
		CHANNELS 3 Zrotation Yrotation Xrotation
		JOINT LeftUpLeg
		{
			OFFSET 1.800000 -1.400000 0.085000
			CHANNELS 3 Zrotation Yrotation Xrotation
			JOINT LeftLeg
			{
				OFFSET 2.215000 -6.000000 0.000000
				CHANNELS 3 Zrotation Yrotation Xrotation
				JOINT LeftFoot
				{
					OFFSET 2.500000 -6.900000 0.000000
					CHANNELS 3 Zrotation Yrotation Xrotation
					JOINT LeftToeBase
					{
						OFFSET 0.200000 -0.500000 1.950000
						CHANNELS 3 Zrotation Yrotation Xrotation
						End Site
						{
							OFFSET 0.000000 0.000000 0.000000
						}
					}
				}
			}
		}
	}
	JOINT RHipJoint
	{
		OFFSET 0.000000 0.000000 0.000000
		CHANNELS 3 Zrotation Yrotation Xrotation
		JOINT RightUpLeg
		{
			OFFSET -1.800000 -1.400000 0.085000
			CHANNELS 3 Zrotation Yrotation Xrotation
			JOINT RightLeg
			{
				OFFSET -2.215000 -6.000000 0.000000
				CHANNELS 3 Zrotation Yrotation Xrotation
				JOINT RightFoot
				{
					OFFSET -2.500000 -6.900000 0.000000
					CHANNELS 3 Zrotation Yrotation Xrotation
					JOINT RightToeBase
					{
						OFFSET -0.200000 -0.500000 1.950000
						CHANNELS 3 Zrotation Yrotation Xrotation
						End Site
						{
							OFFSET 0.000000 0.000000 0.000000
						}
					}
				}
			}
		}
	}
	JOINT LowerBack
	{
		OFFSET 0.000000 0.000000 0.000000
		CHANNELS 3 Zrotation Yrotation Xrotation
		JOINT Spine
		{
			OFFSET -0.087000 1.940000 -0.288900
			CHANNELS 3 Zrotation Yrotation Xrotation
			JOINT Spine1
			{
				OFFSET 0.000000 1.950000 0.060000
				CHANNELS 3 Zrotation Yrotation Xrotation
				JOINT Neck
				{
					OFFSET 0.000000 0.000000 0.000000
					CHANNELS 3 Zrotation Yrotation Xrotation
					JOINT Neck1
					{
						OFFSET 0.000000 1.600000 0.340000
						CHANNELS 3 Zrotation Yrotation Xrotation
						JOINT Head
						{
							OFFSET 0.000000 1.667000 -0.240000
							CHANNELS 3 Zrotation Yrotation Xrotation
							End Site
							{
								OFFSET 0.000000 0.000000 0.000000
							}
						}
					}
				}
				JOINT LeftShoulder
				{
					OFFSET 0.000000 0.000000 0.000000
					CHANNELS 3 Zrotation Yrotation Xrotation
					JOINT LeftArm
					{
						OFFSET 2.700000 1.550000 -0.730000
						CHANNELS 3 Zrotation Yrotation Xrotation
						JOINT LeftForeArm
						{
							OFFSET 5.450000 0.000000 0.000000
							CHANNELS 3 Zrotation Yrotation Xrotation
							JOINT LeftHand
							{
								OFFSET 3.450000 0.000000 0.000000
								CHANNELS 3 Zrotation Yrotation Xrotation
								JOINT LeftHandIndex1
								{
									OFFSET 0.750000 0.000000 0.000000
									CHANNELS 3 Zrotation Yrotation Xrotation
									End Site
									{
										OFFSET 0.000000 0.000000 0.000000
									}
								}
							}
						}
					}
				}
				JOINT RightShoulder
				{
					OFFSET 0.000000 0.000000 0.000000
					CHANNELS 3 Zrotation Yrotation Xrotation
					JOINT RightArm
					{
						OFFSET -2.700000 1.550000 -0.730000
						CHANNELS 3 Zrotation Yrotation Xrotation
						JOINT RightForeArm
						{
							OFFSET -5.450000 0.000000 0.000000
							CHANNELS 3 Zrotation Yrotation Xrotation
							JOINT RightHand
							{
								OFFSET -3.450000 0.000000 0.000000
								CHANNELS 3 Zrotation Yrotation Xrotation
								JOINT RightHandIndex1
								{
									OFFSET -0.750000 0.000000 0.000000
									CHANNELS 3 Zrotation Yrotation Xrotation
									End Site
									{
										OFFSET 0.000000 0.000000 0.000000
									}
								}
							}
						}
					}
				}
			}
		}
	}
}
MOTION
Frames: 6
Frame Time: 0.016667
0.707860 17.551140 -0.877150 -3.080648 -7.684412 -4.348465 -15.075813 13.619772 2.855111 1.490119 0.358862 -2.141633 -7.791342 7.685932 18.463533 -0.166120 5.203616 2.838817 0.435950 0.073620 0.474060 18.374181 -10.059920 3.909713 4.293159 8.230771 -32.386403 -0.593860 -3.644448 32.388981 -0.312785 -3.455978 3.150000 0.042520 0.045090 0.198100 -3.725645 -2.600928 -8.047925 8.183783 -5.037746 21.546145 -8.239751 -3.195271 2.473123 2.627829 -4.748470 -7.456705 -13.057534 9.876889 47.538955 -3.632040 6.555970 -7.942120 -24.673886 1.406514 0.726000 -36.794367 13.553278 -11.735967 -45.305890 -26.457055 5.242908 -3.478547 3.124815 0.657480 -0.014360 0.137450 0.121450 19.364318 0.494627 3.384345 46.941635 -11.097884 -15.534919 52.274249 30.425410 7.758014 2.172610 -1.546207 -0.175220 0.172620 -0.075090 -0.276930 
0.708100 17.547470 -0.864480 -3.021916 -7.703167 -4.172195 -15.077969 13.630860 2.862006 1.348041 0.338603 -2.263926 -7.694328 7.658348 18.563647 -0.173240 5.199954 2.840681 0.430110 0.065120 0.469700 18.369753 -10.084140 3.871218 4.402421 7.960955 -32.152283 -0.580411 -3.556976 31.190920 -0.276295 -3.290061 3.212573 0.040600 0.052190 0.199190 -3.716174 -2.604584 -8.020108 8.123990 -5.041959 21.155480 -8.209246 -3.238227 2.627885 2.632872 -4.714317 -7.385884 -12.900785 9.869131 47.237921 -3.696040 6.677010 -7.790170 -24.450885 1.639627 0.683396 -37.060830 13.540588 -11.782231 -45.322163 -26.450579 5.241041 -3.490103 3.124558 0.654090 -0.006250 0.129240 0.120240 19.139404 0.212474 3.317804 47.172204 -11.133338 -15.576188 52.283016 30.413519 7.762214 2.167333 -1.548430 -0.179620 0.171250 -0.070420 -0.279020 
0.706640 17.540200 -0.842600 -2.832561 -7.806764 -3.832848 -15.087001 13.646228 2.877781 1.030141 0.315963 -2.472977 -7.570323 7.607013 18.655747 -0.177533 5.182615 2.849968 0.421900 0.056920 0.462710 18.358740 -10.117482 3.806375 4.542101 7.499628 -31.802433 -0.516483 -3.405061 29.041358 -0.216946 -2.999659 3.320484 0.039170 0.063450 0.199980 -3.686878 -2.619508 -7.973561 7.862225 -5.012547 20.480872 -8.116947 -3.304996 2.854346 2.616848 -4.685357 -7.245239 -12.682684 9.895083 46.605450 -3.757140 6.905440 -7.613130 -23.994463 2.139784 0.592214 -37.540576 13.502032 -11.849306 -45.373929 -26.424397 5.252371 -3.506724 3.125167 0.644960 0.005070 0.119200 0.121190 18.736674 -0.330098 3.174582 47.643771 -11.160691 -15.633945 52.174252 30.373094 7.748106 2.163742 -1.552108 -0.184180 0.170580 -0.067120 -0.278310 
0.706390 17.530820 -0.813450 -2.650050 -7.997253 -3.357157 -15.095330 13.653514 2.891223 0.672907 0.289739 -2.745764 -7.461110 7.544078 18.692043 -0.189176 5.164207 2.860893 0.402180 0.037290 0.441910 18.351294 -10.149436 3.735031 4.746638 6.973745 -31.366222 -0.389047 -3.231877 26.301426 -0.142521 -2.663478 3.447403 0.035940 0.086170 0.199950 -3.664378 -2.626515 -7.913439 7.677692 -5.000219 19.583396 -8.043054 -3.393493 3.099819 2.585449 -4.692483 -7.034271 -12.465302 9.956600 45.676376 -3.784290 7.142170 -7.212920 -23.482498 2.825097 0.452030 -38.121483 13.485613 -11.910629 -45.415050 -26.435506 5.286656 -3.534086 3.127662 0.630710 0.024820 0.097900 0.120640 18.297711 -1.051329 2.984735 48.082959 -11.222525 -15.638983 52.239304 30.377638 7.816319 2.154616 -1.559750 -0.195430 0.171160 -0.053780 -0.276660 
0.705530 17.519730 -0.782270 -2.346556 -8.314836 -2.881539 -15.115207 13.660610 2.911528 0.209644 0.272093 -3.008387 -7.395408 7.487543 18.704983 -0.198649 5.144327 2.872297 0.393630 0.027300 0.435730 18.334223 -10.175183 3.653383 4.834932 6.385636 -30.815454 -0.108242 -3.083083 23.222230 -0.072859 -2.327090 3.579185 0.036260 0.101850 0.201200 -3.610323 -2.651944 -7.851750 7.232936 -4.901062 18.669034 -7.876458 -3.428508 3.411725 2.567368 -4.650928 -6.788402 -12.165512 9.933581 44.733337 -3.970140 7.395900 -7.064670 -22.880190 3.600953 0.262732 -38.747478 13.336890 -11.932059 -45.481624 -26.384774 5.324659 -3.559334 3.126908 0.618380 0.042930 0.081730 0.120510 17.763867 -1.860337 2.782329 48.525101 -11.292105 -15.638159 52.533431 30.483836 7.982451 2.143277 -1.570861 -0.202730 0.171150 -0.048910 -0.278210 
0.703140 17.506800 -0.747870 -1.981426 -8.603986 -2.456019 -15.143221 13.670841 2.932981 -0.250242 0.256195 -3.230595 -7.388098 7.471987 18.804759 -0.195857 5.138994 2.876349 0.382770 0.019650 0.428210 18.309726 -10.192168 3.567732 4.717943 5.776814 -30.143116 0.463520 -3.009662 20.110475 -0.015228 -2.046155 3.689051 0.035340 0.113570 0.201400 -3.534522 -2.700120 -7.793738 6.624739 -4.792375 17.759443 -7.641088 -3.473187 3.720281 2.561985 -4.561891 -6.585068 -11.825781 9.924267 43.989680 -4.120040 7.676540 -6.860930 -22.220516 4.365098 0.100282 -39.392774 13.161410 -11.933054 -45.597747 -26.359687 5.403061 -3.580955 3.128499 0.603070 0.057780 0.069660 0.118830 17.172971 -2.673732 2.622746 48.976427 -11.439336 -15.643490 53.042043 30.702693 8.249061 2.136836 -1.583941 -0.206280 0.168740 -0.045240 -0.276630 
